STARTFONT 2.1
FONT -FontForge-Michroma-Book-R-Normal--36-350-75-75-P-271-ISO8859-1
SIZE 35 75 75
FONTBOUNDINGBOX 61 52 -4 -10
COMMENT "Generated by fontforge, http://fontforge.sourceforge.net"
COMMENT "vernon adams"
STARTPROPERTIES 39
FOUNDRY "FontForge"
FAMILY_NAME "Michroma"
WEIGHT_NAME "Book"
SLANT "R"
SETWIDTH_NAME "Normal"
ADD_STYLE_NAME ""
PIXEL_SIZE 36
POINT_SIZE 350
RESOLUTION_X 75
RESOLUTION_Y 75
SPACING "P"
AVERAGE_WIDTH 271
CHARSET_REGISTRY "ISO8859"
CHARSET_ENCODING "1"
FONTNAME_REGISTRY ""
CHARSET_COLLECTIONS "ISOLatin1Encoding"
FONT_NAME "Michroma"
FACE_NAME "Michroma"
COPYRIGHT "vernon adams"
FONT_VERSION "1.000"
FONT_ASCENT 29
FONT_DESCENT 7
UNDERLINE_POSITION -4
UNDERLINE_THICKNESS 2
X_HEIGHT 20
CAP_HEIGHT 26
RAW_ASCENT 799
RAW_DESCENT 200
NORM_SPACE 8
RELATIVE_WEIGHT 40
RELATIVE_SETWIDTH 50
SUPERSCRIPT_X 0
SUPERSCRIPT_Y 17
SUPERSCRIPT_SIZE 23
SUBSCRIPT_X 0
SUBSCRIPT_Y 5
SUBSCRIPT_SIZE 23
AVG_LOWERCASE_WIDTH 266
AVG_UPPERCASE_WIDTH 352
ENDPROPERTIES
CHARS 195
STARTCHAR NULL
ENCODING 0
SWIDTH 0 0
DWIDTH 0 0
BBX 1 1 0 0
BITMAP
00
ENDCHAR
STARTCHAR uni0002
ENCODING 2
SWIDTH 0 0
DWIDTH 0 0
BBX 1 1 0 0
BITMAP
00
ENDCHAR
STARTCHAR uni0009
ENCODING 9
SWIDTH 0 0
DWIDTH 0 0
BBX 1 1 0 0
BITMAP
00
ENDCHAR
STARTCHAR uni000A
ENCODING 10
SWIDTH 0 0
DWIDTH 0 0
BBX 1 1 0 0
BITMAP
00
ENDCHAR
STARTCHAR nonmarkingreturn
ENCODING 13
SWIDTH 0 0
DWIDTH 0 0
BBX 1 1 0 0
BITMAP
00
ENDCHAR
STARTCHAR space
ENCODING 32
SWIDTH 218 0
DWIDTH 8 0
BBX 1 1 0 0
BITMAP
00
ENDCHAR
STARTCHAR exclam
ENCODING 33
SWIDTH 218 0
DWIDTH 8 0
BBX 3 27 2 0
BITMAP
E0
E0
E0
E0
E0
E0
E0
E0
E0
E0
40
40
40
40
40
40
40
40
40
00
00
00
00
00
E0
E0
E0
ENDCHAR
STARTCHAR quotedbl
ENCODING 34
SWIDTH 375 0
DWIDTH 14 0
BBX 9 7 2 20
BITMAP
E380
6300
6300
6300
6300
6300
6300
ENDCHAR
STARTCHAR numbersign
ENCODING 35
SWIDTH 750 0
DWIDTH 27 0
BBX 23 28 2 -2
BITMAP
006030
007038
007038
00E070
00E070
00E070
01E0F0
01C0E0
7FFFFE
7FFFFE
7FFFFE
0381C0
0381C0
0381C0
070380
070380
070380
FFFFFC
FFFFFC
FFFFFC
0E0700
1E0F00
1C0E00
1C0E00
1C0E00
381C00
381C00
180C00
ENDCHAR
STARTCHAR dollar
ENCODING 36
SWIDTH 985 0
DWIDTH 35 0
BBX 30 30 2 -2
BITMAP
00038000
01FFFF00
0FFFFFE0
3FFFFFF8
7E038078
F003803C
E003801C
E003801C
E0038000
E0038000
E0038000
F0038000
7C038000
3FFFFF00
1FFFFFE0
03FFFFF8
000380F8
0003803C
0003801C
0003801C
0003801C
0003801C
E003801C
E003803C
F0038078
780381F8
7FFFFFF0
1FFFFFC0
03FFFE00
00038000
ENDCHAR
STARTCHAR percent
ENCODING 37
SWIDTH 499 0
DWIDTH 18 0
BBX 16 27 1 0
BITMAP
000F
000E
001E
001C
003C
0038
0038
0070
0070
00F0
00E0
01E0
01C0
03C0
0380
0780
0700
0F00
0E00
0E00
1C00
1C00
3C00
3800
7800
7000
F000
ENDCHAR
STARTCHAR ampersand
ENCODING 38
SWIDTH 1187 0
DWIDTH 43 0
BBX 38 27 2 0
BITMAP
00FFFF8000
03FFFFF000
07FFFFF800
0F80007800
0E00003C00
0E00001C00
0E00001C00
0E00001C00
0F00000000
0780000000
03E0000000
0FF8000000
3FFE000000
7C3F800000
700FE00700
F003F80700
E000FE0700
E0001F8700
E00007E700
E00001FF00
E000007F00
E000001F80
7000000FE0
7E00003FF8
3FFFFFFC7C
1FFFFFF81C
03FFFFC000
ENDCHAR
STARTCHAR quotesingle
ENCODING 39
SWIDTH 218 0
DWIDTH 8 0
BBX 4 7 2 20
BITMAP
F0
60
60
60
60
60
60
ENDCHAR
STARTCHAR parenleft
ENCODING 40
SWIDTH 375 0
DWIDTH 14 0
BBX 9 29 2 -1
BITMAP
0780
1F80
3F80
3C00
7000
7000
E000
E000
E000
E000
E000
E000
E000
E000
E000
E000
E000
E000
E000
E000
E000
E000
6000
7000
7000
3C00
3F80
1F80
0780
ENDCHAR
STARTCHAR parenright
ENCODING 41
SWIDTH 375 0
DWIDTH 13 0
BBX 9 29 2 -1
BITMAP
F000
FC00
FE00
1E00
0700
0700
0700
0380
0380
0380
0380
0380
0380
0380
0380
0380
0380
0380
0380
0380
0380
0380
0700
0700
0700
1E00
FE00
FC00
F000
ENDCHAR
STARTCHAR asterisk
ENCODING 42
SWIDTH 690 0
DWIDTH 25 0
BBX 19 20 3 7
BITMAP
00E000
00E000
00E000
00E000
00E000
40E040
F0E1E0
F8C3E0
FE4FE0
1FFF00
03F800
00E000
01B000
03B800
071C00
0E1E00
1E0F00
3C0780
3C0780
180300
ENDCHAR
STARTCHAR plus
ENCODING 43
SWIDTH 656 0
DWIDTH 24 0
BBX 19 18 2 6
BITMAP
00E000
00E000
00E000
00E000
00E000
00E000
00E000
FFFFE0
FFFFE0
FFFFE0
00E000
00E000
00E000
00E000
00E000
00E000
00E000
00E000
ENDCHAR
STARTCHAR comma
ENCODING 44
SWIDTH 218 0
DWIDTH 8 0
BBX 4 7 1 -5
BITMAP
70
70
60
E0
E0
C0
C0
ENDCHAR
STARTCHAR hyphen
ENCODING 45
SWIDTH 500 0
DWIDTH 18 0
BBX 14 3 2 9
BITMAP
FFFC
FFFC
FFFC
ENDCHAR
STARTCHAR period
ENCODING 46
SWIDTH 218 0
DWIDTH 8 0
BBX 3 3 2 0
BITMAP
E0
E0
E0
ENDCHAR
STARTCHAR slash
ENCODING 47
SWIDTH 499 0
DWIDTH 18 0
BBX 16 27 1 0
BITMAP
000F
000E
001E
001C
003C
0038
0038
0070
0070
00F0
00E0
01E0
01C0
03C0
0380
0780
0700
0F00
0E00
0E00
1C00
1C00
3C00
3800
7800
7000
F000
ENDCHAR
STARTCHAR zero
ENCODING 48
SWIDTH 1000 0
DWIDTH 36 0
BBX 31 27 2 0
BITMAP
03FFFF80
0FFFFFE0
3FFFFFF8
7C00007C
7000001C
7000001C
E000000E
E000000E
E000000E
E000000E
E000000E
E000000E
E000000E
E000000E
E000000E
E000000E
E000000E
E000000E
E000000E
E000000E
E000000E
7000001C
7000001C
7C00007C
3FFFFFF8
1FFFFFE0
03FFFF80
ENDCHAR
STARTCHAR one
ENCODING 49
SWIDTH 484 0
DWIDTH 17 0
BBX 13 27 2 0
BITMAP
00F8
01F8
03F8
07B8
0F38
1E38
7C38
F838
6038
4038
0038
0038
0038
0038
0038
0038
0038
0038
0038
0038
0038
0038
0038
0038
0038
0038
0038
ENDCHAR
STARTCHAR two
ENCODING 50
SWIDTH 968 0
DWIDTH 35 0
BBX 30 27 2 0
BITMAP
03FFFF00
0FFFFFE0
3FFFFFF0
7E0000F8
70000038
7000001C
E000001C
E000001C
E000001C
E000001C
0000001C
0000001C
00000038
00003FF8
01FFFFF0
1FFFFFC0
3FFF8000
7E000000
70000000
E0000000
E0000000
E0000000
E0000000
E0000000
FFFFFFF8
FFFFFFF8
FFFFFFF8
ENDCHAR
STARTCHAR three
ENCODING 51
SWIDTH 968 0
DWIDTH 35 0
BBX 30 27 2 0
BITMAP
03FFFF00
1FFFFFE0
3FFFFFF0
7C0000F8
70000038
E000001C
E000001C
E000001C
0000001C
0000001C
0000001C
0000003C
001FFFF8
001FFFF0
001FFFF8
00000038
0000001C
0000001C
E000001C
E000001C
E000001C
E000001C
7000003C
7C0000F8
3FFFFFF0
1FFFFFE0
03FFFF00
ENDCHAR
STARTCHAR four
ENCODING 52
SWIDTH 1000 0
DWIDTH 36 0
BBX 31 27 2 0
BITMAP
000003E0
000007E0
00000FE0
00003CE0
000078E0
0000F0E0
0001E0E0
000780E0
000F00E0
001E00E0
003C00E0
00F800E0
01E000E0
03C000E0
078000E0
1F0000E0
3C0000E0
780000E0
F00000E0
FFFFFFFE
FFFFFFFE
FFFFFFFE
000000E0
000000E0
000000E0
000000E0
000000E0
ENDCHAR
STARTCHAR five
ENCODING 53
SWIDTH 968 0
DWIDTH 35 0
BBX 30 27 2 0
BITMAP
FFFFFFF8
FFFFFFF8
FFFFFFF8
E0000000
E0000000
E0000000
E0000000
E0000000
E1FFFF80
EFFFFFE0
FFFFFFF8
F8000078
E000003C
0000001C
0000001C
0000001C
0000001C
0000001C
E000001C
E000001C
E000001C
E000003C
70000038
7C0000F8
3FFFFFF0
1FFFFFE0
03FFFF00
ENDCHAR
STARTCHAR six
ENCODING 54
SWIDTH 968 0
DWIDTH 35 0
BBX 30 27 2 0
BITMAP
01FFFC00
0FFFFFC0
3FFFFFE0
7C0003F0
70000078
F0000038
E0000038
E0000000
E0000000
E0000000
E3FFFF00
EFFFFFE0
FFFFFFF0
F80000F8
F0000038
E000001C
E000001C
E000001C
E000001C
E000001C
E000001C
7000001C
70000038
7C0000F8
3FFFFFF0
0FFFFFE0
01FFFF00
ENDCHAR
STARTCHAR seven
ENCODING 55
SWIDTH 968 0
DWIDTH 35 0
BBX 30 27 2 0
BITMAP
FFFFFFFC
FFFFFFFC
FFFFFFFC
0000003C
00000078
000000F0
000000F0
000001E0
000003C0
00000780
00000F00
00001E00
00003C00
00003C00
00007800
0000F000
0001E000
0003C000
00078000
000F0000
000F0000
001E0000
003C0000
00780000
00F00000
01E00000
03C00000
ENDCHAR
STARTCHAR eight
ENCODING 56
SWIDTH 968 0
DWIDTH 35 0
BBX 30 27 2 0
BITMAP
01FFFE00
0FFFFFC0
3FFFFFF0
3E0001F0
78000078
70000038
70000038
70000038
70000038
78000078
3C0000F0
1FFFFFE0
07FFFF80
3FFFFFE0
7C0000F8
70000038
E000001C
E000001C
E000001C
E000001C
E000001C
E000001C
70000038
7C0000F8
3FFFFFF0
1FFFFFE0
03FFFF00
ENDCHAR
STARTCHAR nine
ENCODING 57
SWIDTH 968 0
DWIDTH 35 0
BBX 30 27 2 0
BITMAP
03FFFF00
1FFFFFE0
3FFFFFF0
7C0000F8
F0000038
E0000038
E000001C
E000001C
E000001C
E000001C
E000001C
F000003C
7C00007C
3FFFFFFC
1FFFFFFC
03FFFF1C
0000001C
0000001C
0000001C
0000001C
7000001C
70000038
78000038
3F0000F0
1FFFFFF0
0FFFFFC0
00FFFE00
ENDCHAR
STARTCHAR colon
ENCODING 58
SWIDTH 218 0
DWIDTH 8 0
BBX 3 14 2 3
BITMAP
E0
E0
E0
00
00
00
00
00
00
00
00
E0
E0
E0
ENDCHAR
STARTCHAR semicolon
ENCODING 59
SWIDTH 218 0
DWIDTH 8 0
BBX 4 15 1 2
BITMAP
70
70
70
00
00
00
00
00
70
70
60
E0
E0
C0
C0
ENDCHAR
STARTCHAR less
ENCODING 60
SWIDTH 562 0
DWIDTH 20 0
BBX 15 21 2 4
BITMAP
0006
001E
003E
00FE
01FC
07F0
1FC0
3F00
FC00
F000
C000
F000
7C00
3F00
0FC0
07F0
01FC
007E
003E
000E
0006
ENDCHAR
STARTCHAR equal
ENCODING 61
SWIDTH 718 0
DWIDTH 26 0
BBX 22 12 2 6
BITMAP
FFFFFC
FFFFFC
FFFFFC
000000
000000
000000
000000
000000
000000
FFFFFC
FFFFFC
FFFFFC
ENDCHAR
STARTCHAR greater
ENCODING 62
SWIDTH 562 0
DWIDTH 20 0
BBX 15 21 2 4
BITMAP
C000
F000
F800
FE00
7F00
1FC0
07F0
01F8
007E
001E
0006
001E
007C
01F8
07E0
1FC0
7F00
FC00
F800
E000
C000
ENDCHAR
STARTCHAR question
ENCODING 63
SWIDTH 906 0
DWIDTH 33 0
BBX 28 27 2 0
BITMAP
03FFFE00
1FFFFFC0
3FFFFFE0
7C0001E0
F00000F0
E0000070
E0000070
00000070
00000070
000000F0
000001E0
0001FFE0
0007FFC0
001FFF00
001F0000
003C0000
00380000
00380000
00380000
00380000
00380000
00380000
00000000
00000000
00380000
00380000
00380000
ENDCHAR
STARTCHAR at
ENCODING 64
SWIDTH 1093 0
DWIDTH 39 0
BBX 35 28 2 -4
BITMAP
007FFFC000
07FFFFFC00
1FFFFFFF00
3F80001F80
3C000003C0
78000001C0
700FF801C0
F07FFEE0C0
E0FFFFE0C0
E0F003E0C0
E1E001E0E0
E1C000E0E0
E1C000E0E0
E1C000E0E0
E1C000E0E0
E1C000E0E0
E1C000E0E0
E1E001E0E0
E0F003E1E0
E0FFFF7FE0
707FFE3FC0
700FF81F80
7800000000
3C00000000
1F80000000
0FFFFFF800
03FFFFF800
003FFFF800
ENDCHAR
STARTCHAR A
ENCODING 65
SWIDTH 1062 0
DWIDTH 38 0
BBX 35 27 1 0
BITMAP
0000F80000
0001F80000
0003FC0000
00039C0000
00079E0000
00070F0000
000F070000
000E078000
001C038000
003C03C000
003801C000
007801E000
007000E000
00F0007000
01E0007800
01C0003800
03C0003C00
0380001C00
07FFFFFE00
07FFFFFE00
0FFFFFFF00
1E00000780
1C00000380
3C000003C0
38000001C0
70000001E0
F0000000E0
ENDCHAR
STARTCHAR B
ENCODING 66
SWIDTH 1031 0
DWIDTH 37 0
BBX 32 27 3 0
BITMAP
FFFFFFE0
FFFFFFF8
FFFFFFFC
E000003E
E000000E
E000000E
E000000E
E000000E
E000000E
E000001C
E000003C
FFFFFFF8
FFFFFFF0
FFFFFFFC
E000003E
E000000E
E0000007
E0000007
E0000007
E0000007
E0000007
E0000007
E000000F
E000003E
FFFFFFFE
FFFFFFF8
FFFFFFE0
ENDCHAR
STARTCHAR C
ENCODING 67
SWIDTH 1030 0
DWIDTH 37 0
BBX 32 27 2 0
BITMAP
03FFFFC0
0FFFFFF8
3FFFFFFC
7C00003E
7000000E
7000000F
E0000007
E0000007
E0000007
E0000000
E0000000
E0000000
E0000000
E0000000
E0000000
E0000000
E0000000
E0000000
E0000007
E0000007
E0000007
70000007
7000000E
7C00003E
3FFFFFFC
1FFFFFF8
03FFFFC0
ENDCHAR
STARTCHAR D
ENCODING 68
SWIDTH 1062 0
DWIDTH 38 0
BBX 33 27 3 0
BITMAP
FFFFFFC000
FFFFFFF800
FFFFFFFE00
E000001F00
E000000700
E000000700
E000000380
E000000380
E000000380
E000000380
E000000380
E000000380
E000000380
E000000380
E000000380
E000000380
E000000380
E000000380
E000000380
E000000380
E000000380
E000000700
E000000700
E000001F00
FFFFFFFE00
FFFFFFF800
FFFFFFC000
ENDCHAR
STARTCHAR E
ENCODING 69
SWIDTH 875 0
DWIDTH 32 0
BBX 27 27 3 0
BITMAP
FFFFFFE0
FFFFFFE0
FFFFFFE0
E0000000
E0000000
E0000000
E0000000
E0000000
E0000000
E0000000
E0000000
E0000000
FFFFFF80
FFFFFF80
FFFFFF80
E0000000
E0000000
E0000000
E0000000
E0000000
E0000000
E0000000
E0000000
E0000000
FFFFFFE0
FFFFFFE0
FFFFFFE0
ENDCHAR
STARTCHAR F
ENCODING 70
SWIDTH 843 0
DWIDTH 30 0
BBX 25 27 3 0
BITMAP
FFFFFF80
FFFFFF80
FFFFFF80
E0000000
E0000000
E0000000
E0000000
E0000000
E0000000
E0000000
E0000000
E0000000
FFFFFF00
FFFFFF00
FFFFFF00
E0000000
E0000000
E0000000
E0000000
E0000000
E0000000
E0000000
E0000000
E0000000
E0000000
E0000000
E0000000
ENDCHAR
STARTCHAR G
ENCODING 71
SWIDTH 1062 0
DWIDTH 38 0
BBX 34 27 2 0
BITMAP
03FFFFF000
1FFFFFFE00
3FFFFFFF00
7C00000F80
7000000380
F0000003C0
E0000001C0
E0000001C0
E0000001C0
E000000000
E000000000
E000000000
E000000000
E0003FFFC0
E0003FFFC0
E0003FFFC0
E0000001C0
E0000001C0
E0000001C0
E0000001C0
E0000001C0
70000003C0
7000000380
7C00000F80
3FFFFFFF00
0FFFFFFE00
03FFFFF000
ENDCHAR
STARTCHAR H
ENCODING 72
SWIDTH 1062 0
DWIDTH 38 0
BBX 32 27 3 0
BITMAP
E0000007
E0000007
E0000007
E0000007
E0000007
E0000007
E0000007
E0000007
E0000007
E0000007
E0000007
E0000007
FFFFFFFF
FFFFFFFF
FFFFFFFF
E0000007
E0000007
E0000007
E0000007
E0000007
E0000007
E0000007
E0000007
E0000007
E0000007
E0000007
E0000007
ENDCHAR
STARTCHAR I
ENCODING 73
SWIDTH 281 0
DWIDTH 10 0
BBX 3 27 3 0
BITMAP
E0
E0
E0
E0
E0
E0
E0
E0
E0
E0
E0
E0
E0
E0
E0
E0
E0
E0
E0
E0
E0
E0
E0
E0
E0
E0
E0
ENDCHAR
STARTCHAR J
ENCODING 74
SWIDTH 837 0
DWIDTH 30 0
BBX 25 27 2 0
BITMAP
00000380
00000380
00000380
00000380
00000380
00000380
00000380
00000380
00000380
00000380
00000380
00000380
00000380
00000380
00000380
00000380
00000380
E0000380
E0000380
E0000380
E0000380
E0000380
F0000780
78000F00
7FFFFF00
3FFFFE00
0FFFF000
ENDCHAR
STARTCHAR K
ENCODING 75
SWIDTH 984 0
DWIDTH 35 0
BBX 31 27 3 0
BITMAP
E000007C
E00000F8
E00003E0
E00007C0
E0001F80
E0003E00
E000FC00
E001F000
E007E000
E00F8000
E01F0000
E07C0000
FFF80000
FFF80000
FFFC0000
E03F0000
E00F8000
E007C000
E001F000
E000F800
E0003E00
E0001F00
E0000FC0
E00003E0
E00001F0
E000007C
E000003E
ENDCHAR
STARTCHAR L
ENCODING 76
SWIDTH 812 0
DWIDTH 29 0
BBX 24 27 3 0
BITMAP
E00000
E00000
E00000
E00000
E00000
E00000
E00000
E00000
E00000
E00000
E00000
E00000
E00000
E00000
E00000
E00000
E00000
E00000
E00000
E00000
E00000
E00000
E00000
E00000
FFFFFF
FFFFFF
FFFFFF
ENDCHAR
STARTCHAR M
ENCODING 77
SWIDTH 1367 0
DWIDTH 49 0
BBX 42 27 3 0
BITMAP
FC0000000FC0
FE0000000FC0
EE0000001FC0
E70000003DC0
E78000003DC0
E380000079C0
E1C00000F1C0
E1E00000F1C0
E0E00001E1C0
E0700003C1C0
E0780003C1C0
E038000781C0
E03C000F81C0
E01E000F01C0
E00E001E01C0
E00F003E01C0
E007803C01C0
E003807801C0
E003C0F801C0
E001E0F001C0
E000E1E001C0
E000F3E001C0
E0007BC001C0
E0003F8001C0
E0003F8001C0
E0001F0001C0
E0000E0001C0
ENDCHAR
STARTCHAR N
ENCODING 78
SWIDTH 1133 0
DWIDTH 41 0
BBX 34 27 3 0
BITMAP
FC000001C0
FE000001C0
FF000001C0
EF800001C0
E7C00001C0
E3F00001C0
E1F80001C0
E0FC0001C0
E07E0001C0
E03F0001C0
E00F8001C0
E007C001C0
E003E001C0
E001F001C0
E000F801C0
E0007C01C0
E0003E01C0
E0001F01C0
E0000FC1C0
E00003E1C0
E00001F1C0
E00000F9C0
E000007DC0
E000003FC0
E000001FC0
E000000FC0
E0000007C0
ENDCHAR
STARTCHAR O
ENCODING 79
SWIDTH 1093 0
DWIDTH 39 0
BBX 35 27 2 0
BITMAP
01FFFFF800
0FFFFFFE00
3FFFFFFF80
7C000007C0
70000001C0
70000001C0
E0000000E0
E0000000E0
E0000000E0
E0000000E0
E0000000E0
E0000000E0
E0000000E0
E0000000E0
E0000000E0
E0000000E0
E0000000E0
E0000000E0
E0000000E0
E0000000E0
E0000000E0
70000001C0
70000001C0
7C000007C0
3FFFFFFF80
0FFFFFFE00
01FFFFF000
ENDCHAR
STARTCHAR P
ENCODING 80
SWIDTH 968 0
DWIDTH 35 0
BBX 30 27 3 0
BITMAP
FFFFFFC0
FFFFFFF0
FFFFFFF8
E000007C
E000001C
E000001C
E000001C
E000001C
E000001C
E000001C
E000001C
E000003C
E0000078
FFFFFFF8
FFFFFFF0
FFFFFF00
E0000000
E0000000
E0000000
E0000000
E0000000
E0000000
E0000000
E0000000
E0000000
E0000000
E0000000
ENDCHAR
STARTCHAR Q
ENCODING 81
SWIDTH 1148 0
DWIDTH 41 0
BBX 37 27 2 0
BITMAP
03FFFFF000
0FFFFFFE00
3FFFFFFF80
7C000007C0
70000001C0
70000001C0
E0000000E0
E0000000E0
E0000000E0
E0000000E0
E0000000E0
E0000000E0
E0000000E0
E0000400E0
E0000F00E0
E0000F80E0
E00003E0E0
E00001F0E0
E000007CE0
E000001FE0
E000000FE0
70000003E0
70000001F0
7C000007F8
3FFFFFFFB0
0FFFFFFF00
01FFFFF800
ENDCHAR
STARTCHAR R
ENCODING 82
SWIDTH 1031 0
DWIDTH 37 0
BBX 32 27 3 0
BITMAP
FFFFFFE0
FFFFFFFC
FFFFFFFE
E000001F
E0000007
E0000007
E0000007
E0000007
E0000007
E0000007
E0000007
E000000F
E000001E
FFFFFFFC
FFFFFFF0
FFFFFFF8
E000003C
E000001E
E000000E
E000000E
E000000E
E000000E
E000000E
E000000E
E000000E
E000000E
E000000E
ENDCHAR
STARTCHAR S
ENCODING 83
SWIDTH 968 0
DWIDTH 35 0
BBX 30 28 2 -1
BITMAP
01FFFF00
1FFFFFE0
3FFFFFF8
7E000078
F000003C
E000001C
E000001C
E0000000
E0000000
E0000000
F0000000
7C000000
7FFFFF00
1FFFFFE0
03FFFFF8
000000F8
0000003C
0000001C
0000001C
0000001C
0000001C
E000001C
E000003C
F0000078
780001F8
7FFFFFF0
1FFFFFC0
07FFFE00
ENDCHAR
STARTCHAR T
ENCODING 84
SWIDTH 968 0
DWIDTH 35 0
BBX 29 27 3 0
BITMAP
FFFFFFF8
FFFFFFF8
FFFFFFF8
00070000
00070000
00070000
00070000
00070000
00070000
00070000
00070000
00070000
00070000
00070000
00070000
00070000
00070000
00070000
00070000
00070000
00070000
00070000
00070000
00070000
00070000
00070000
00070000
ENDCHAR
STARTCHAR U
ENCODING 85
SWIDTH 1031 0
DWIDTH 37 0
BBX 33 27 2 0
BITMAP
E000000380
E000000380
E000000380
E000000380
E000000380
E000000380
E000000380
E000000380
E000000380
E000000380
E000000380
E000000380
E000000380
E000000380
E000000380
E000000380
E000000380
E000000380
E000000380
E000000380
E000000380
7000000700
7000000700
7C00001F00
3FFFFFFE00
0FFFFFF800
01FFFFE000
ENDCHAR
STARTCHAR V
ENCODING 86
SWIDTH 1000 0
DWIDTH 36 0
BBX 33 27 1 0
BITMAP
F000000380
7800000780
7800000700
3C00000F00
3C00000E00
1E00001E00
0E00001C00
0F00003800
0780007800
0780007000
03C000F000
03C000E000
01E001E000
01E001C000
00F003C000
00F0038000
0078078000
0078070000
003C0F0000
003C0E0000
001E1E0000
001E1C0000
000F3C0000
000F380000
0007F80000
0007F00000
0003F00000
ENDCHAR
STARTCHAR W
ENCODING 87
SWIDTH 1625 0
DWIDTH 58 0
BBX 56 27 1 0
BITMAP
F000001E00000F
7800003E00000E
7800003F00001E
3C00007F00001C
3C00007780003C
1E0000F380003C
1E0000E3C00038
0F0001E1C00078
0F0001E1E00070
078001C0E000F0
078003C0F000E0
03C00380F001E0
03C007807001C0
01E007007803C0
01E00F003803C0
00F00E003C0380
00F01E001C0780
00781C001E0700
00783C000E0F00
003C3C000F0E00
003C3800071E00
001E7800079C00
001E7000079C00
000FF00003BC00
000FE00003F800
0007E00001F800
0007C00001F000
ENDCHAR
STARTCHAR X
ENCODING 88
SWIDTH 1062 0
DWIDTH 38 0
BBX 34 27 2 0
BITMAP
7C00001F00
3E00003E00
1F00007C00
0F8000F800
07C001F000
03E003E000
01F007C000
00F80F8000
007C1F0000
001F3E0000
000FFC0000
0007F80000
0003F00000
0007F00000
000FF80000
001F7C0000
003E3E0000
007C1F0000
00F807C000
01F003E000
03E001F000
07C000F800
0F80007C00
1F00003E00
3E00001F00
7C00000F80
F8000007C0
ENDCHAR
STARTCHAR Y
ENCODING 89
SWIDTH 1074 0
DWIDTH 39 0
BBX 34 27 2 0
BITMAP
F0000003C0
7800000780
3C00000F00
1E00001E00
0F00003C00
0780007800
03C000F000
01E001E000
00F003C000
0078078000
003C0F0000
001E1E0000
000F3C0000
0007F80000
0003F00000
0001E00000
0001C00000
0001C00000
0001C00000
0001C00000
0001C00000
0001C00000
0001C00000
0001C00000
0001C00000
0001C00000
0001C00000
ENDCHAR
STARTCHAR Z
ENCODING 90
SWIDTH 999 0
DWIDTH 36 0
BBX 32 27 2 0
BITMAP
7FFFFFFE
7FFFFFFE
7FFFFFFE
0000003C
00000078
000001F0
000003E0
000007C0
00000F00
00003E00
00007C00
0000F800
0001E000
0003C000
000F8000
001F0000
003C0000
00780000
01F00000
03E00000
07C00000
0F000000
1E000000
7C000000
FFFFFFFF
FFFFFFFF
FFFFFFFF
ENDCHAR
STARTCHAR bracketleft
ENCODING 91
SWIDTH 406 0
DWIDTH 15 0
BBX 10 27 2 0
BITMAP
FFC0
FFC0
FFC0
E000
E000
E000
E000
E000
E000
E000
E000
E000
E000
E000
E000
E000
E000
E000
E000
E000
E000
E000
E000
E000
FFC0
FFC0
FFC0
ENDCHAR
STARTCHAR backslash
ENCODING 92
SWIDTH 499 0
DWIDTH 18 0
BBX 16 27 1 0
BITMAP
F000
7000
7800
3800
3C00
1C00
1C00
0E00
0E00
0F00
0700
0780
0380
03C0
01C0
01E0
00E0
00F0
0070
0070
0038
0038
003C
001C
001E
000E
000F
ENDCHAR
STARTCHAR bracketright
ENCODING 93
SWIDTH 406 0
DWIDTH 15 0
BBX 10 27 2 0
BITMAP
FFC0
FFC0
FFC0
01C0
01C0
01C0
01C0
01C0
01C0
01C0
01C0
01C0
01C0
01C0
01C0
01C0
01C0
01C0
01C0
01C0
01C0
01C0
01C0
01C0
FFC0
FFC0
FFC0
ENDCHAR
STARTCHAR asciicircum
ENCODING 94
SWIDTH 531 0
DWIDTH 19 0
BBX 17 11 1 16
BITMAP
03E000
07E000
077000
0E3800
1E3C00
1C1C00
380E00
780F00
700700
E00380
200200
ENDCHAR
STARTCHAR underscore
ENCODING 95
SWIDTH 531 0
DWIDTH 19 0
BBX 19 3 0 -3
BITMAP
FFFFE0
FFFFE0
FFFFE0
ENDCHAR
STARTCHAR grave
ENCODING 96
SWIDTH 468 0
DWIDTH 17 0
BBX 12 10 3 23
BITMAP
4000
E000
F800
FC00
7E00
1F00
0780
03E0
00F0
0020
ENDCHAR
STARTCHAR a
ENCODING 97
SWIDTH 778 0
DWIDTH 28 0
BBX 23 21 2 0
BITMAP
03FF80
1FFFF0
3FFFF8
780078
70001C
00001C
00000E
00000E
00000E
0FFF8E
3FFFEE
7FFFFE
F0007E
E0001E
E0000E
E0000E
E0001E
F8007E
7FFFFE
3FFFEE
07FF0E
ENDCHAR
STARTCHAR b
ENCODING 98
SWIDTH 796 0
DWIDTH 29 0
BBX 25 27 2 0
BITMAP
E0000000
E0000000
E0000000
E0000000
E0000000
E0000000
E1FFC000
EFFFF800
FFFFFC00
FE003E00
F8000F00
F0000700
E0000380
E0000380
E0000380
E0000380
E0000380
E0000380
E0000380
E0000380
E0000380
F0000700
F8000F00
FE003E00
EFFFFE00
E7FFF800
E0FFC000
ENDCHAR
STARTCHAR c
ENCODING 99
SWIDTH 766 0
DWIDTH 28 0
BBX 23 21 2 0
BITMAP
03FFC0
1FFFF8
3FFFFC
7C003E
70000E
F0000E
E00000
E00000
E00000
E00000
E00000
E00000
E00000
E00000
E0000E
F0000E
70001E
7C003C
3FFFFC
1FFFF8
03FFC0
ENDCHAR
STARTCHAR d
ENCODING 100
SWIDTH 796 0
DWIDTH 29 0
BBX 24 27 2 0
BITMAP
000007
000007
000007
000007
000007
000007
03FF87
0FFFF7
3FFFFF
3C003F
70001F
70000F
E00007
E00007
E00007
E00007
E00007
E00007
E00007
E00007
E00007
70000F
70001F
3C003F
3FFFF7
0FFFE7
03FF07
ENDCHAR
STARTCHAR e
ENCODING 101
SWIDTH 765 0
DWIDTH 28 0
BBX 23 21 2 0
BITMAP
03FF80
0FFFE0
3FFFF8
3C007C
70003C
70001C
E0000E
E0000E
E0000E
FFFFFE
FFFFFE
E00000
E00000
E00000
E00000
70000E
70000E
7C003E
3FFFFC
0FFFF8
03FFC0
ENDCHAR
STARTCHAR f
ENCODING 102
SWIDTH 515 0
DWIDTH 19 0
BBX 15 27 3 0
BITMAP
03FE
0FFE
0FFE
1E00
1C00
1C00
FFFE
FFFE
FFFE
1C00
1C00
1C00
1C00
1C00
1C00
1C00
1C00
1C00
1C00
1C00
1C00
1C00
1C00
1C00
1C00
1C00
1C00
ENDCHAR
STARTCHAR g
ENCODING 103
SWIDTH 796 0
DWIDTH 29 0
BBX 24 28 2 -7
BITMAP
03FF87
0FFFF7
3FFFFF
3C003F
70001F
70000F
E00007
E00007
E00007
E00007
E00007
E00007
E00007
E00007
E00007
70000F
70001F
7C003F
3FFFFF
0FFFF7
03FF87
000007
00000E
70000E
78003C
3FFFFC
1FFFF0
07FFC0
ENDCHAR
STARTCHAR h
ENCODING 104
SWIDTH 781 0
DWIDTH 28 0
BBX 24 27 2 0
BITMAP
E00000
E00000
E00000
E00000
E00000
E00000
E07FE0
E7FFF8
EFFFFC
FE007E
F8000E
F0000F
E00007
E00007
E00007
E00007
E00007
E00007
E00007
E00007
E00007
E00007
E00007
E00007
E00007
E00007
E00007
ENDCHAR
STARTCHAR i
ENCODING 105
SWIDTH 281 0
DWIDTH 10 0
BBX 3 27 3 0
BITMAP
E0
E0
E0
00
00
00
E0
E0
E0
E0
E0
E0
E0
E0
E0
E0
E0
E0
E0
E0
E0
E0
E0
E0
E0
E0
E0
ENDCHAR
STARTCHAR j
ENCODING 106
SWIDTH 328 0
DWIDTH 12 0
BBX 6 34 2 -7
BITMAP
1C
1C
1C
00
00
00
1C
1C
1C
1C
1C
1C
1C
1C
1C
1C
1C
1C
1C
1C
1C
1C
1C
1C
1C
1C
1C
1C
1C
1C
3C
FC
F8
E0
ENDCHAR
STARTCHAR k
ENCODING 107
SWIDTH 687 0
DWIDTH 25 0
BBX 22 27 2 0
BITMAP
E00000
E00000
E00000
E00000
E00000
E00000
E000F8
E001F0
E007C0
E00F80
E03E00
E0FC00
E1F000
E7E000
FF8000
FF0000
FF8000
E7C000
E1E000
E0F800
E07C00
E01E00
E00F80
E007C0
E001F0
E000F8
E0007C
ENDCHAR
STARTCHAR l
ENCODING 108
SWIDTH 281 0
DWIDTH 10 0
BBX 3 27 3 0
BITMAP
E0
E0
E0
E0
E0
E0
E0
E0
E0
E0
E0
E0
E0
E0
E0
E0
E0
E0
E0
E0
E0
E0
E0
E0
E0
E0
E0
ENDCHAR
STARTCHAR m
ENCODING 109
SWIDTH 1218 0
DWIDTH 44 0
BBX 39 21 2 0
BITMAP
E0FF803FE0
E7FFE1FFF8
EFFFF3FFFC
FE01F7807C
F8007E001E
F0007C001E
E00038000E
E00038000E
E00038000E
E00038000E
E00038000E
E00038000E
E00038000E
E00038000E
E00038000E
E00038000E
E00038000E
E00038000E
E00038000E
E00038000E
E00038000E
ENDCHAR
STARTCHAR n
ENCODING 110
SWIDTH 781 0
DWIDTH 28 0
BBX 24 21 2 0
BITMAP
E07FE0
E3FFF8
EFFFFC
FE007E
F8001E
F0000F
E00007
E00007
E00007
E00007
E00007
E00007
E00007
E00007
E00007
E00007
E00007
E00007
E00007
E00007
E00007
ENDCHAR
STARTCHAR o
ENCODING 111
SWIDTH 781 0
DWIDTH 28 0
BBX 24 21 2 0
BITMAP
03FFC0
0FFFF0
3FFFFC
7C003E
70001E
70000E
E00007
E00007
E00007
E00007
E00007
E00007
E00007
E00007
E00007
70000E
70001E
3C003C
3FFFFC
0FFFF0
03FFC0
ENDCHAR
STARTCHAR p
ENCODING 112
SWIDTH 796 0
DWIDTH 29 0
BBX 25 28 2 -7
BITMAP
E1FFC000
EFFFF800
FFFFFC00
FE003E00
F8000F00
F0000700
E0000380
E0000380
E0000380
E0000380
E0000380
E0000380
E0000380
E0000380
E0000380
F0000700
F8000F00
FE003E00
FFFFFE00
E7FFF800
E1FFC000
E0000000
E0000000
E0000000
E0000000
E0000000
E0000000
E0000000
ENDCHAR
STARTCHAR q
ENCODING 113
SWIDTH 796 0
DWIDTH 29 0
BBX 24 28 2 -7
BITMAP
03FF87
0FFFF7
3FFFFF
7C003F
70000F
70000F
E00007
E00007
E00007
E00007
E00007
E00007
E00007
E00007
E00007
70000F
70001F
3C003F
3FFFFF
0FFFF7
03FF87
000007
000007
000007
000007
000007
000007
000007
ENDCHAR
STARTCHAR r
ENCODING 114
SWIDTH 625 0
DWIDTH 22 0
BBX 21 21 2 0
BITMAP
E0FF80
E7FFE0
EFFFF0
FE00F0
F80078
F00038
E00038
E00000
E00000
E00000
E00000
E00000
E00000
E00000
E00000
E00000
E00000
E00000
E00000
E00000
E00000
ENDCHAR
STARTCHAR s
ENCODING 115
SWIDTH 781 0
DWIDTH 28 0
BBX 24 21 2 0
BITMAP
03FFE0
1FFFFC
7FFFFE
F8001F
E00007
E00007
E00000
E00000
F00000
7FFFF0
3FFFFC
0FFFFE
00001F
000007
000007
E00007
E00007
F8003F
7FFFFE
3FFFFC
07FFC0
ENDCHAR
STARTCHAR t
ENCODING 116
SWIDTH 671 0
DWIDTH 24 0
BBX 21 26 1 0
BITMAP
0E0000
0E0000
0E0000
0E0000
0E0000
FFFFF0
FFFFF0
FFFFF0
0E0000
0E0000
0E0000
0E0000
0E0000
0E0000
0E0000
0E0000
0E0000
0E0038
0E0038
0E0038
0E0038
0E0078
0700F0
07FFF0
03FFE0
00FF80
ENDCHAR
STARTCHAR u
ENCODING 117
SWIDTH 781 0
DWIDTH 28 0
BBX 24 21 2 0
BITMAP
E00007
E00007
E00007
E00007
E00007
E00007
E00007
E00007
E00007
E00007
E00007
E00007
E00007
E00007
E00007
F0000F
70001F
7E00FF
3FFFF7
1FFFC7
07FE07
ENDCHAR
STARTCHAR v
ENCODING 118
SWIDTH 781 0
DWIDTH 28 0
BBX 25 20 2 0
BITMAP
F0000780
F0000780
78000F00
78000F00
3C001E00
3C001E00
1E003C00
1E003C00
0F007800
0F007800
0780F000
0780F000
03C1E000
03C1E000
01E3C000
01E38000
00F78000
00F70000
007F0000
003E0000
ENDCHAR
STARTCHAR w
ENCODING 119
SWIDTH 1093 0
DWIDTH 39 0
BBX 37 21 1 0
BITMAP
F000700078
F000F80078
7800F80070
7800FC00F0
3801DC00F0
3C01DC00E0
3C01CE01E0
1C038E01E0
1E038E01C0
1E078703C0
0E07070380
0F07078380
070E038780
070E038700
079E01CF00
039C01CF00
039C01CE00
03FC00FE00
01F800FC00
01F800FC00
00F8007C00
ENDCHAR
STARTCHAR x
ENCODING 120
SWIDTH 794 0
DWIDTH 29 0
BBX 25 21 1 0
BITMAP
18000C00
7C001F00
1E003C00
0F007800
0780F000
03C1E000
01E3C000
01F7C000
00FF8000
007F0000
003E0000
007F0000
00FF8000
01F7C000
03E3E000
07C1F000
0F80F800
1F007C00
3E003E00
7C001F00
F8000F80
ENDCHAR
STARTCHAR y
ENCODING 121
SWIDTH 765 0
DWIDTH 28 0
BBX 24 27 2 -7
BITMAP
E0000F
F0000F
70001E
78001E
38003C
3C003C
1C0078
1E0078
0E00F0
0F00F0
0701E0
0781E0
0381C0
03C3C0
01C380
01E780
00E700
00FF00
007E00
003E00
001C00
003C00
007800
00F800
1FF000
1FE000
1F0000
ENDCHAR
STARTCHAR z
ENCODING 122
SWIDTH 718 0
DWIDTH 26 0
BBX 22 20 2 0
BITMAP
7FFFFC
7FFFFC
00007C
0000F8
0001E0
0003C0
000780
001F00
003E00
007C00
00F800
01E000
03C000
0F8000
1F0000
3E0000
7C0000
FFFFFC
FFFFFC
FFFFFC
ENDCHAR
STARTCHAR braceleft
ENCODING 123
SWIDTH 468 0
DWIDTH 17 0
BBX 12 29 3 -1
BITMAP
00F0
03F0
07F0
0F00
0E00
1C00
1C00
1C00
1C00
1C00
1C00
1C00
3C00
F800
F000
F800
3C00
1C00
1C00
1C00
1C00
1C00
1C00
1C00
0E00
0F00
07F0
03F0
00F0
ENDCHAR
STARTCHAR bar
ENCODING 124
SWIDTH 218 0
DWIDTH 8 0
BBX 3 30 2 -2
BITMAP
E0
E0
E0
E0
E0
E0
E0
E0
E0
E0
E0
E0
E0
E0
E0
E0
E0
E0
E0
E0
E0
E0
E0
E0
E0
E0
E0
E0
E0
E0
ENDCHAR
STARTCHAR braceright
ENCODING 125
SWIDTH 468 0
DWIDTH 17 0
BBX 12 29 2 -1
BITMAP
F000
FC00
FE00
0F00
0700
0380
0380
0380
0380
0380
0380
0380
03C0
01F0
00F0
01F0
03C0
0380
0380
0380
0380
0380
0380
0380
0700
0F00
FE00
FC00
F000
ENDCHAR
STARTCHAR asciitilde
ENCODING 126
SWIDTH 562 0
DWIDTH 20 0
BBX 16 5 2 14
BITMAP
3E07
7FC7
FFFF
E1FE
E07C
ENDCHAR
STARTCHAR uni00A0
ENCODING 160
SWIDTH 0 0
DWIDTH 0 0
BBX 1 1 0 0
BITMAP
00
ENDCHAR
STARTCHAR exclamdown
ENCODING 161
SWIDTH 218 0
DWIDTH 8 0
BBX 3 27 2 0
BITMAP
E0
E0
E0
00
00
00
00
00
40
40
40
40
40
40
40
40
40
E0
E0
E0
E0
E0
E0
E0
E0
E0
E0
ENDCHAR
STARTCHAR cent
ENCODING 162
SWIDTH 781 0
DWIDTH 28 0
BBX 23 20 2 0
BITMAP
03FFC0
1FFFF0
3FFFFC
7C003C
70001E
E0000E
E0000E
E00000
E00000
E00000
E00000
E00000
E00000
E0000E
E0000E
70001E
7C003C
3FFFFC
1FFFF0
03FFC0
ENDCHAR
STARTCHAR sterling
ENCODING 163
SWIDTH 812 0
DWIDTH 29 0
BBX 25 27 2 0
BITMAP
007FF000
03FFFE00
07FFFF00
0F800F00
0E000780
1E000380
1C000380
1C000000
1C000000
1C000000
1C000000
1C000000
1C000000
FFFFF800
FFFFF800
FFFFF800
1C000000
1C000000
1C000000
1C000000
1C000000
1C000000
1C000000
1C000000
1FFFFF00
1FFFFF00
1FFFFF00
ENDCHAR
STARTCHAR currency
ENCODING 164
SWIDTH 625 0
DWIDTH 22 0
BBX 19 16 2 1
BITMAP
43F0C0
E7FDE0
7FFF80
3C0F00
380700
700380
700380
700380
700380
700380
780780
3C0F00
3FFF00
7FFF80
E3F9E0
4000C0
ENDCHAR
STARTCHAR yen
ENCODING 165
SWIDTH 1000 0
DWIDTH 36 0
BBX 32 27 1 0
BITMAP
F0000007
3800000E
1C00001C
0E000038
07000070
038000E0
01C001C0
00E00380
00700700
00380E00
001C1C00
000E3800
03FF7FE0
03FFFFE0
03FFFFE0
0001C000
0001C000
0001C000
0001C000
03FFFFE0
03FFFFE0
03FFFFE0
0001C000
0001C000
0001C000
0001C000
0001C000
ENDCHAR
STARTCHAR brokenbar
ENCODING 166
SWIDTH 218 0
DWIDTH 8 0
BBX 3 30 2 -2
BITMAP
E0
E0
E0
E0
E0
E0
E0
E0
E0
E0
E0
E0
00
00
00
00
00
00
E0
E0
E0
E0
E0
E0
E0
E0
E0
E0
E0
E0
ENDCHAR
STARTCHAR section
ENCODING 167
SWIDTH 734 0
DWIDTH 26 0
BBX 22 27 2 -1
BITMAP
01FF80
1FFFF0
7FFFF8
7C0078
F0001C
E0001C
E00000
E00000
F00000
7FFF80
7FFFF0
7FFFFC
E0003C
E0001C
F0001C
FFFFF8
7FFFF8
0FFFF8
00003C
00001C
E0001C
E0001C
F0003C
7C03F8
7FFFF8
1FFFE0
01F800
ENDCHAR
STARTCHAR dieresis
ENCODING 168
SWIDTH 531 0
DWIDTH 19 0
BBX 17 3 1 24
BITMAP
F00380
F00380
F00380
ENDCHAR
STARTCHAR copyright
ENCODING 169
SWIDTH 937 0
DWIDTH 34 0
BBX 29 28 2 1
BITMAP
007FF800
07FFFF00
0FFFFFC0
1F0003E0
3C3FF0E0
78FFFC70
71FFFE70
71E01F70
E3C00738
E3800738
E3800738
E3800038
E3800038
E3800038
E3800038
E3800738
E3800738
E3C00738
E1E01F38
F1FFFE38
70FFFC70
703FF070
780000F0
3C0001E0
1F0007C0
0FFFFF80
03FFFF00
007FF800
ENDCHAR
STARTCHAR ordfeminine
ENCODING 170
SWIDTH 781 0
DWIDTH 28 0
BBX 23 21 2 0
BITMAP
03FF80
1FFFF0
3FFFF8
78007C
70001C
00001C
00000E
00000E
00000E
0FFF8E
3FFFFE
7FFFFE
70007E
E0000E
E0000E
E0000E
E0001E
F8007E
7FFFFE
3FFFEE
07FF8E
ENDCHAR
STARTCHAR guillemotleft
ENCODING 171
SWIDTH 656 0
DWIDTH 24 0
BBX 19 17 2 2
BITMAP
002040
00E1C0
01F3E0
07CF80
0F9F00
1E7C00
7CF800
F0E000
E0C000
F0E000
7CF800
1E3C00
0F9F00
07CF80
01F3E0
00E1C0
002040
ENDCHAR
STARTCHAR logicalnot
ENCODING 172
SWIDTH 593 0
DWIDTH 21 0
BBX 16 7 3 12
BITMAP
FFFF
FFFF
FFFF
0007
0007
0007
0007
ENDCHAR
STARTCHAR registered
ENCODING 174
SWIDTH 937 0
DWIDTH 34 0
BBX 29 28 2 1
BITMAP
007FF800
07FFFF00
0FFFFF80
1F0007C0
3C0001E0
78FFE0F0
70FFF870
70E03C70
E0E00E38
E0E00E38
E0E00E38
E0E00E38
E0E03C38
E0FFF838
E0FFF038
E0E03C38
E0E01E38
E0E00E38
E0E00E38
E0E00E38
70E00E70
70E00E70
780000F0
3C0001E0
1F0007C0
0FFFFF80
07FFFF00
007FF800
ENDCHAR
STARTCHAR macron
ENCODING 175
SWIDTH 500 0
DWIDTH 18 0
BBX 14 3 2 24
BITMAP
FFFC
FFFC
FFFC
ENDCHAR
STARTCHAR degree
ENCODING 176
SWIDTH 625 0
DWIDTH 22 0
BBX 16 15 3 2
BITMAP
07E0
1FF8
3FFC
781E
F00F
E007
E007
E007
E007
E007
F00F
781E
3FFC
1FF8
07E0
ENDCHAR
STARTCHAR plusminus
ENCODING 177
SWIDTH 656 0
DWIDTH 24 0
BBX 19 18 2 6
BITMAP
00E000
00E000
00E000
00E000
00E000
00E000
00E000
FFFFE0
FFFFE0
FFFFE0
00E000
00E000
00E000
00E000
00E000
00E000
00E000
00E000
ENDCHAR
STARTCHAR twosuperior
ENCODING 178
SWIDTH 656 0
DWIDTH 24 0
BBX 19 19 2 8
BITMAP
1FFF00
7FFFC0
7FFFC0
F001E0
E000E0
E000E0
0000E0
0000E0
0003E0
007FC0
0FFF80
3FFC00
7F8000
F00000
E00000
E00000
FFFFE0
FFFFE0
FFFFE0
ENDCHAR
STARTCHAR threesuperior
ENCODING 179
SWIDTH 718 0
DWIDTH 26 0
BBX 21 20 2 7
BITMAP
1FFFC0
7FFFF0
FFFFF8
F00078
E00038
000038
000038
000078
001FF0
001FE0
001FF0
000078
000038
000038
000038
E00038
F00078
FFFFF0
7FFFF0
1FFFC0
ENDCHAR
STARTCHAR acute
ENCODING 180
SWIDTH 468 0
DWIDTH 17 0
BBX 11 9 3 23
BITMAP
00C0
01E0
03E0
0FC0
1F80
3E00
7800
F000
C000
ENDCHAR
STARTCHAR mu
ENCODING 181
SWIDTH 781 0
DWIDTH 28 0
BBX 24 27 2 -7
BITMAP
E00007
E00007
E00007
E00007
E00007
E00007
E00007
E00007
E00007
E00007
E00007
E00007
E00007
E00007
F0000F
F0001F
FE00FF
FFFFF7
FFFFE7
EFFF87
E00000
E00000
E00000
E00000
E00000
E00000
E00000
ENDCHAR
STARTCHAR paragraph
ENCODING 182
SWIDTH 968 0
DWIDTH 35 0
BBX 31 27 2 0
BITMAP
03FFFFFE
1FFFFFFE
7FFFFFFE
7FFF80E0
FFFF80E0
FFFF80E0
FFFF80E0
FFFF80E0
FFFF80E0
FFFF80E0
FFFF80E0
FFFF80E0
7FFF80E0
7FFF80E0
3FFF80E0
07FF80E0
000380E0
000380E0
000380E0
000380E0
000380E0
000380E0
000380E0
000380E0
000380E0
000380E0
000380E0
ENDCHAR
STARTCHAR periodcentered
ENCODING 183
SWIDTH 218 0
DWIDTH 8 0
BBX 3 3 2 12
BITMAP
E0
E0
E0
ENDCHAR
STARTCHAR cedilla
ENCODING 184
SWIDTH 312 0
DWIDTH 11 0
BBX 7 11 2 -10
BITMAP
C0
C0
C0
C0
FC
1E
0E
0E
FE
FC
F0
ENDCHAR
STARTCHAR onesuperior
ENCODING 185
SWIDTH 437 0
DWIDTH 16 0
BBX 13 19 1 8
BITMAP
01F8
03F8
07F8
0FF8
1F78
3E78
7878
F078
6078
0078
0078
0078
0078
0078
0078
0078
0078
0078
0078
ENDCHAR
STARTCHAR ordmasculine
ENCODING 186
SWIDTH 812 0
DWIDTH 29 0
BBX 25 20 2 7
BITMAP
01FFC000
0FFFF800
3FFFFE00
7C001E00
78000F00
70000700
E0000380
E0000380
E0000380
E0000380
E0000380
E0000380
E0000380
E0000380
70000700
70000F00
7C001F00
3FFFFE00
0FFFF800
03FFC000
ENDCHAR
STARTCHAR guillemotright
ENCODING 187
SWIDTH 656 0
DWIDTH 24 0
BBX 19 17 2 2
BITMAP
404000
707000
F8F800
3E3E00
1F1F00
0787C0
03E3E0
00F0E0
007060
00F0E0
03E3E0
078780
1F1F00
3E3E00
F8F800
707000
404000
ENDCHAR
STARTCHAR onequarter
ENCODING 188
SWIDTH 1390 0
DWIDTH 50 0
BBX 46 27 2 0
BITMAP
00F800380000
03F800780000
07F800700000
0FF800700000
1E7800E00000
3C7800E00000
787801E00000
F07801C00000
607803C007C0
007803800FC0
007807801FC0
007807003DC0
00780F0079C0
00780E00F1C0
00781E01C1C0
00781C0381C0
00781C0701C0
0078381E01C0
0078383C01C0
0000787801C0
000070F001C0
0000F0FFFFFC
0000E0FFFFFC
0001E0FFFFFC
0001C00001C0
0003C00001C0
0003800001C0
ENDCHAR
STARTCHAR onehalf
ENCODING 189
SWIDTH 1406 0
DWIDTH 51 0
BBX 46 27 2 0
BITMAP
00F800780000
03F800700000
07F800F00000
0FF800E00000
1F7800E00000
3E7801C00000
7C7801C00000
F87803C00000
60780383FFE0
0078078FFFF8
0078070FFFF8
00780F1E003C
00780E1C001C
00781E1C001C
00781C00001C
00783C00001C
00783800007C
007838000FF8
00787001FFF0
00007007FF80
0000F00FF000
0000E01E0000
0001E01C0000
0001C01C0000
0003C01FFFFC
0003801FFFFC
0007801FFFFC
ENDCHAR
STARTCHAR threequarters
ENCODING 190
SWIDTH 1500 0
DWIDTH 54 0
BBX 50 27 2 0
BITMAP
1FFFE000E00000
7FFFF001C00000
7FFFF801C00000
F0003803C00000
F0003C03800000
F0003C07800000
00003C07000000
0000380F000000
001FF80E007C00
001FF01E00FC00
001FF01C01FC00
0000783C03DC00
00003838079C00
00003C380E1C00
00003C701C1C00
F0003C70381C00
F80078F0F01C00
7FFFF8E1E01C00
3FFFF1E3C01C00
07FF81C7801C00
000003CF001C00
0000038FFFFFC0
0000078FFFFFC0
0000070FFFFFC0
00000700001C00
00000E00001C00
00000E00001C00
ENDCHAR
STARTCHAR questiondown
ENCODING 191
SWIDTH 906 0
DWIDTH 33 0
BBX 28 27 2 0
BITMAP
03FFFE00
1FFFFFC0
3FFFFFE0
7C0001E0
F00000F0
E0000070
E0000070
00000070
00000070
000000F0
000001E0
0001FFE0
0007FFC0
001FFF00
001F0000
003C0000
00380000
00380000
00380000
00380000
00380000
00380000
00000000
00000000
00380000
00380000
00380000
ENDCHAR
STARTCHAR Agrave
ENCODING 192
SWIDTH 1125 0
DWIDTH 41 0
BBX 35 41 3 0
BITMAP
0004000000
000E000000
000F000000
001FC00000
0007E00000
0001F00000
0000F80000
00003C0000
00000E0000
0000060000
0000000000
0000000000
0000000000
0000000000
0001F00000
0003F00000
0003F80000
0007B80000
000F1C0000
000E1E0000
001E0E0000
001C0F0000
003C070000
0038078000
0070038000
00F001C000
00E001E000
01E000E000
01C000F000
0380007000
0780007800
0700003800
0FFFFFFC00
0FFFFFFE00
1FFFFFFE00
3C00000F00
3800000700
7800000780
7000000380
F0000003C0
E0000001E0
ENDCHAR
STARTCHAR Aacute
ENCODING 193
SWIDTH 1125 0
DWIDTH 41 0
BBX 35 40 3 0
BITMAP
00000C0000
00001E0000
00007E0000
0000FC0000
0001F80000
0003E00000
0007800000
001F000000
000C000000
0000000000
0000000000
0000000000
0000000000
0001F00000
0003F00000
0003F80000
0007B80000
000F1C0000
000E1E0000
001E0E0000
001C0F0000
003C070000
0038078000
0070038000
00F001C000
00E001E000
01E000E000
01C000F000
0380007000
0780007800
0700003800
0FFFFFFC00
0FFFFFFE00
1FFFFFFE00
3C00000F00
3800000700
7800000780
7000000380
F0000003C0
E0000001E0
ENDCHAR
STARTCHAR Acircumflex
ENCODING 194
SWIDTH 1125 0
DWIDTH 41 0
BBX 35 41 3 0
BITMAP
0000E00000
0001F00000
0003F00000
0003B80000
00073C0000
000E1C0000
000E0E0000
001C0F0000
003C070000
0018030000
0000000000
0000000000
0000000000
0000000000
0001F00000
0003F00000
0003F80000
0007BC0000
000F1C0000
000E1E0000
001E0E0000
001C0F0000
003C070000
0078078000
007803C000
00F001C000
00E001E000
01E000E000
01C000F000
03C0007800
0780007800
0780003C00
0FFFFFFC00
0FFFFFFE00
1FFFFFFE00
3C00000F00
3C00000780
7800000780
78000003C0
F0000001C0
E0000001E0
ENDCHAR
STARTCHAR Atilde
ENCODING 195
SWIDTH 1125 0
DWIDTH 41 0
BBX 35 36 3 0
BITMAP
000F838000
003FF78000
003FFF0000
0078FF0000
0078080000
0000000000
0000000000
0000000000
0000000000
0001F00000
0003F00000
0003F80000
0007BC0000
000F1C0000
000E1E0000
001E0E0000
001C0F0000
003C070000
0078078000
007803C000
00F001C000
00E001E000
01E000E000
01C000F000
03C0007800
0780007800
0780003C00
0FFFFFFC00
0FFFFFFE00
1FFFFFFE00
3C00000F00
3C00000780
7800000780
78000003C0
F0000001C0
E0000001E0
ENDCHAR
STARTCHAR Adieresis
ENCODING 196
SWIDTH 1125 0
DWIDTH 41 0
BBX 35 35 3 0
BITMAP
007003C000
007003C000
007003C000
0000000000
0000000000
0000000000
0000000000
0000000000
0001F00000
0003F00000
0003F80000
0007B80000
000F1C0000
000E1E0000
001E0E0000
001C0F0000
003C070000
0038078000
0070038000
00F001C000
00E001E000
01E000E000
01C000F000
0380007000
0780007800
0700003800
0FFFFFFC00
0FFFFFFE00
1FFFFFFE00
3C00000F00
3800000700
7800000780
7000000380
F0000003C0
E0000001E0
ENDCHAR
STARTCHAR Aring
ENCODING 197
SWIDTH 1125 0
DWIDTH 41 0
BBX 35 42 3 0
BITMAP
0000400000
0007F80000
000FFC0000
000E0E0000
001C0E0000
001C060000
001C060000
001C0E0000
000E0E0000
000FFC0000
0007F80000
0000C00000
0000000000
0000000000
0000000000
0001F00000
0003F00000
0003F80000
0007BC0000
000F1C0000
000E1E0000
001E0E0000
001C0F0000
003C070000
0078078000
007803C000
00F001C000
00E001E000
01E000E000
01C000F000
03C0007800
0780007800
0780003C00
0FFFFFFC00
0FFFFFFE00
1FFFFFFE00
3C00000F00
3C00000780
7800000780
78000003C0
F0000001C0
E0000001E0
ENDCHAR
STARTCHAR AE
ENCODING 198
SWIDTH 1500 0
DWIDTH 54 0
BBX 51 27 0 0
BITMAP
000000FFFFFFE0
000001FFFFFFE0
000003FFFFFFE0
000003F8000000
000007B8000000
00000F38000000
00001E38000000
00003C38000000
00007838000000
0000F038000000
0001E038000000
0003C038000000
0007803FFFFFC0
000F003FFFFFC0
001E003FFFFFC0
001C0038000000
00380038000000
00700038000000
00FFFFF8000000
01FFFFF8000000
03FFFFF8000000
07800038000000
0F000038000000
1E000038000000
3C00003FFFFFE0
7800003FFFFFE0
F000003FFFFFE0
ENDCHAR
STARTCHAR Ccedilla
ENCODING 199
SWIDTH 1030 0
DWIDTH 37 0
BBX 32 37 2 -10
BITMAP
03FFFFC0
0FFFFFF8
3FFFFFFC
7C00003E
7000000E
7000000F
E0000007
E0000007
E0000007
E0000000
E0000000
E0000000
E0000000
E0000000
E0000000
E0000000
E0000000
E0000000
E0000007
E0000007
E0000007
70000007
7000000E
7C00003E
3FFFFFFC
0FFFFFF8
01FFFFC0
00018000
00018000
0001F000
0001F800
00003800
00003800
00003800
0001F800
0001F000
0001C000
ENDCHAR
STARTCHAR Egrave
ENCODING 200
SWIDTH 875 0
DWIDTH 32 0
BBX 27 41 3 0
BITMAP
00200000
00700000
00F80000
00FC0000
003E0000
001F8000
0007C000
0001E000
0000F000
00002000
00000000
00000000
00000000
00000000
FFFFFFE0
FFFFFFE0
FFFFFFE0
E0000000
E0000000
E0000000
E0000000
E0000000
E0000000
E0000000
E0000000
E0000000
FFFFFF80
FFFFFF80
FFFFFF80
E0000000
E0000000
E0000000
E0000000
E0000000
E0000000
E0000000
E0000000
E0000000
FFFFFFE0
FFFFFFE0
FFFFFFE0
ENDCHAR
STARTCHAR Eacute
ENCODING 201
SWIDTH 875 0
DWIDTH 32 0
BBX 27 40 3 0
BITMAP
0000E000
0001E000
0003F000
0007E000
000F8000
003F0000
007C0000
00F00000
00E00000
00000000
00000000
00000000
00000000
FFFFFFE0
FFFFFFE0
FFFFFFE0
E0000000
E0000000
E0000000
E0000000
E0000000
E0000000
E0000000
E0000000
E0000000
FFFFFF80
FFFFFF80
FFFFFF80
E0000000
E0000000
E0000000
E0000000
E0000000
E0000000
E0000000
E0000000
E0000000
FFFFFFE0
FFFFFFE0
FFFFFFE0
ENDCHAR
STARTCHAR Ecircumflex
ENCODING 202
SWIDTH 875 0
DWIDTH 32 0
BBX 27 41 3 0
BITMAP
000F0000
000F0000
001F8000
003BC000
0039C000
0070E000
00E0F000
00E07000
01C03800
01C03000
00000000
00000000
00000000
00000000
FFFFFFE0
FFFFFFE0
FFFFFFE0
F0000000
F0000000
F0000000
F0000000
F0000000
F0000000
F0000000
F0000000
F0000000
FFFFFFC0
FFFFFFC0
FFFFFFC0
F0000000
F0000000
F0000000
F0000000
F0000000
F0000000
F0000000
F0000000
F0000000
FFFFFFE0
FFFFFFE0
FFFFFFE0
ENDCHAR
STARTCHAR Edieresis
ENCODING 203
SWIDTH 875 0
DWIDTH 32 0
BBX 27 35 3 0
BITMAP
07801C00
07801C00
07801C00
00000000
00000000
00000000
00000000
00000000
FFFFFFE0
FFFFFFE0
FFFFFFE0
E0000000
E0000000
E0000000
E0000000
E0000000
E0000000
E0000000
E0000000
E0000000
FFFFFF80
FFFFFF80
FFFFFF80
E0000000
E0000000
E0000000
E0000000
E0000000
E0000000
E0000000
E0000000
E0000000
FFFFFFE0
FFFFFFE0
FFFFFFE0
ENDCHAR
STARTCHAR Igrave
ENCODING 204
SWIDTH 218 0
DWIDTH 8 0
BBX 12 41 -2 0
BITMAP
2000
7000
F800
FC00
3F00
1F80
07C0
01E0
00F0
0020
0000
0000
0000
0000
0E00
0E00
0E00
0E00
0E00
0E00
0E00
0E00
0E00
0E00
0E00
0E00
0E00
0E00
0E00
0E00
0E00
0E00
0E00
0E00
0E00
0E00
0E00
0E00
0E00
0E00
0E00
ENDCHAR
STARTCHAR Iacute
ENCODING 205
SWIDTH 218 0
DWIDTH 8 0
BBX 12 40 -2 0
BITMAP
0060
01E0
03F0
07E0
0F80
1F00
7C00
F000
E000
0000
0000
0000
0000
0E00
0E00
0E00
0E00
0E00
0E00
0E00
0E00
0E00
0E00
0E00
0E00
0E00
0E00
0E00
0E00
0E00
0E00
0E00
0E00
0E00
0E00
0E00
0E00
0E00
0E00
0E00
ENDCHAR
STARTCHAR Icircumflex
ENCODING 206
SWIDTH 218 0
DWIDTH 8 0
BBX 14 41 -3 0
BITMAP
0780
0780
0FC0
1FE0
1CE0
3870
7878
7038
E01C
E01C
0000
0000
0000
0000
0780
0780
0780
0780
0780
0780
0780
0780
0780
0780
0780
0780
0780
0780
0780
0780
0780
0780
0780
0780
0780
0780
0780
0780
0780
0780
0780
ENDCHAR
STARTCHAR Idieresis
ENCODING 207
SWIDTH 218 0
DWIDTH 8 0
BBX 16 35 -4 0
BITMAP
E007
E007
E007
0000
0000
0000
0000
0000
0380
0380
0380
0380
0380
0380
0380
0380
0380
0380
0380
0380
0380
0380
0380
0380
0380
0380
0380
0380
0380
0380
0380
0380
0380
0380
0380
ENDCHAR
STARTCHAR Eth
ENCODING 208
SWIDTH 1031 0
DWIDTH 37 0
BBX 35 27 0 0
BITMAP
3FFFFFF000
3FFFFFFE00
3FFFFFFF80
3C000007C0
3C000001C0
3C000001C0
3C000000E0
3C000000E0
3C000000E0
3C000000E0
3C000000E0
3C000000E0
FFFC0000E0
FFFC0000E0
FFFC0000E0
3C000000E0
3C000000E0
3C000000E0
3C000000E0
3C000000E0
3C000000E0
3C000001C0
3C000001C0
3C000007C0
3FFFFFFF80
3FFFFFFE00
3FFFFFF000
ENDCHAR
STARTCHAR Ntilde
ENCODING 209
SWIDTH 1070 0
DWIDTH 39 0
BBX 34 36 2 0
BITMAP
000F838000
003FF78000
003FFF0000
0078FF0000
0078080000
0000000000
0000000000
0000000000
0000000000
FE000001C0
FF000001C0
FF800001C0
FFC00001C0
F7E00001C0
F1F00001C0
F0F80001C0
F07C0001C0
F03E0001C0
F01F0001C0
F00F8001C0
F007C001C0
F003E001C0
F001F001C0
F000F801C0
F0007C01C0
F0003E01C0
F0000F81C0
F00007C1C0
F00003E1C0
F00001F1C0
F00000F9C0
F000007DC0
F000003FC0
F000001FC0
F000000FC0
F0000007C0
ENDCHAR
STARTCHAR Ograve
ENCODING 210
SWIDTH 1093 0
DWIDTH 39 0
BBX 35 41 2 0
BITMAP
0004000000
0007000000
000F800000
000FC00000
0007E00000
0001F00000
00007C0000
00003E0000
00000F0000
0000020000
0000000000
0000000000
0000000000
0000000000
01FFFFF800
0FFFFFFE00
3FFFFFFF80
7C000007C0
70000001C0
70000001C0
E0000000E0
E0000000E0
E0000000E0
E0000000E0
E0000000E0
E0000000E0
E0000000E0
E0000000E0
E0000000E0
E0000000E0
E0000000E0
E0000000E0
E0000000E0
E0000000E0
E0000000E0
70000001C0
70000001C0
7C000007C0
3FFFFFFF80
0FFFFFFE00
01FFFFF000
ENDCHAR
STARTCHAR Oacute
ENCODING 211
SWIDTH 1093 0
DWIDTH 39 0
BBX 35 41 2 0
BITMAP
0000040000
00000C0000
00001E0000
00003F0000
00007E0000
0001F80000
0003E00000
0007C00000
000F000000
000C000000
0000000000
0000000000
0000000000
0000000000
01FFFFF800
0FFFFFFE00
3FFFFFFF80
7C000007C0
70000001C0
70000001C0
E0000000E0
E0000000E0
E0000000E0
E0000000E0
E0000000E0
E0000000E0
E0000000E0
E0000000E0
E0000000E0
E0000000E0
E0000000E0
E0000000E0
E0000000E0
E0000000E0
E0000000E0
70000001C0
70000001C0
7C000007C0
3FFFFFFF80
0FFFFFFE00
01FFFFF000
ENDCHAR
STARTCHAR Ocircumflex
ENCODING 212
SWIDTH 1093 0
DWIDTH 39 0
BBX 35 42 2 -1
BITMAP
0000E00000
0001F00000
0001F80000
0003B80000
00079C0000
00071E0000
000E0E0000
001E070000
001C078000
0018030000
0008000000
0000000000
0000000000
002FFF0000
07FFFFFE00
1FFFFFFF00
3F00001F80
78000003C0
70000001C0
70000001E0
70000001E0
F0000000E0
F0000000E0
F0000000E0
F0000000E0
F0000000E0
F0000000E0
F0000000E0
F0000000E0
F0000000E0
F0000000E0
F0000000E0
F0000000E0
F0000000E0
70000001E0
70000001E0
70000001C0
78000003C0
3F00001F80
1FFFFFFF00
07FFFFFC00
000FFF0000
ENDCHAR
STARTCHAR Otilde
ENCODING 213
SWIDTH 1093 0
DWIDTH 39 0
BBX 35 37 2 -1
BITMAP
000F83C000
001FF38000
003FFF8000
00387F0000
0038000000
0000000000
0000000000
0000000000
002FFF0000
07FFFFFE00
1FFFFFFF00
3F00001F80
78000003C0
70000001C0
70000001E0
70000001E0
F0000000E0
F0000000E0
F0000000E0
F0000000E0
F0000000E0
F0000000E0
F0000000E0
F0000000E0
F0000000E0
F0000000E0
F0000000E0
F0000000E0
F0000000E0
70000001E0
70000001E0
70000001C0
78000003C0
3F00001F80
1FFFFFFF00
07FFFFFC00
000FFF0000
ENDCHAR
STARTCHAR Odieresis
ENCODING 214
SWIDTH 1093 0
DWIDTH 39 0
BBX 35 35 2 0
BITMAP
007801C000
007801C000
007801C000
0000000000
0000000000
0000000000
0000000000
0000000000
01FFFFF800
0FFFFFFE00
3FFFFFFF80
7C000007C0
70000001C0
70000001C0
E0000000E0
E0000000E0
E0000000E0
E0000000E0
E0000000E0
E0000000E0
E0000000E0
E0000000E0
E0000000E0
E0000000E0
E0000000E0
E0000000E0
E0000000E0
E0000000E0
E0000000E0
70000001C0
70000001C0
7C000007C0
3FFFFFFF80
0FFFFFFE00
01FFFFF000
ENDCHAR
STARTCHAR multiply
ENCODING 215
SWIDTH 656 0
DWIDTH 24 0
BBX 15 16 4 7
BITMAP
0004
601E
F03E
787C
3DF8
1FF0
0FE0
07E0
0FC0
1FE0
3EF0
7C78
783C
F01E
600E
0004
ENDCHAR
STARTCHAR Oslash
ENCODING 216
SWIDTH 1094 0
DWIDTH 39 0
BBX 35 37 2 -5
BITMAP
0000008000
000000E000
0000018000
0000010000
0000020000
03FFFFE000
0FFFFFFE00
3FFFFFFF80
7C00078780
70000F01C0
70000F01C0
E0000E00E0
E0001E00E0
E0001E00E0
E0003C00E0
E0003C00E0
E0003800E0
E0007800E0
E0007000E0
E000F000E0
E000F000E0
E000E000E0
E001E000E0
E001C000E0
E003C000E0
E0038000E0
70038001C0
70078001C0
7C070007C0
3FFFFFFF80
0FFFFFFE00
03FFFFF800
001E000000
001C000000
001C000000
0038000000
0008000000
ENDCHAR
STARTCHAR Ugrave
ENCODING 217
SWIDTH 1031 0
DWIDTH 37 0
BBX 33 41 2 0
BITMAP
0008000000
000C000000
001F000000
001F800000
000FC00000
0003E00000
0000F80000
00007C0000
00001E0000
0000040000
0000000000
0000000000
0000000000
0000000000
E000000380
E000000380
E000000380
E000000380
E000000380
E000000380
E000000380
E000000380
E000000380
E000000380
E000000380
E000000380
E000000380
E000000380
E000000380
E000000380
E000000380
E000000380
E000000380
E000000380
E000000380
7000000700
7000000700
7C00001F00
3FFFFFFE00
0FFFFFF800
01FFFFE000
ENDCHAR
STARTCHAR Uacute
ENCODING 218
SWIDTH 1031 0
DWIDTH 37 0
BBX 33 41 2 0
BITMAP
0000080000
0000180000
00003C0000
00007E0000
0000FC0000
0003F00000
0007C00000
000F800000
001E000000
0018000000
0010000000
0000000000
0000000000
0000000000
E000000380
E000000380
E000000380
E000000380
E000000380
E000000380
E000000380
E000000380
E000000380
E000000380
E000000380
E000000380
E000000380
E000000380
E000000380
E000000380
E000000380
E000000380
E000000380
E000000380
E000000380
7000000700
7000000700
7C00001F00
3FFFFFFE00
0FFFFFF800
01FFFFE000
ENDCHAR
STARTCHAR Ucircumflex
ENCODING 219
SWIDTH 1031 0
DWIDTH 37 0
BBX 33 42 2 -1
BITMAP
0001C00000
0003E00000
0003F00000
0007700000
000E380000
000E3C0000
001C1C0000
003C0E0000
00380F0000
0030060000
0010000000
0000000000
0000000000
0000000000
F000000380
F000000380
F000000380
F000000380
F000000380
F000000380
F000000380
F000000380
F000000380
F000000380
F000000380
F000000380
F000000380
F000000380
F000000780
F000000780
F000000780
F000000780
F000000780
F000000780
7000000780
7000000700
7000000700
7800000F00
3F00007E00
1FFFFFFC00
07FFFFF000
000FF80000
ENDCHAR
STARTCHAR Udieresis
ENCODING 220
SWIDTH 1031 0
DWIDTH 37 0
BBX 33 35 2 0
BITMAP
00F0038000
00F0038000
00F0038000
0000000000
0000000000
0000000000
0000000000
0000000000
E000000380
E000000380
E000000380
E000000380
E000000380
E000000380
E000000380
E000000380
E000000380
E000000380
E000000380
E000000380
E000000380
E000000380
E000000380
E000000380
E000000380
E000000380
E000000380
E000000380
E000000380
7000000700
7000000700
7C00001F00
3FFFFFFE00
0FFFFFF800
01FFFFE000
ENDCHAR
STARTCHAR Yacute
ENCODING 221
SWIDTH 1062 0
DWIDTH 38 0
BBX 34 40 2 0
BITMAP
00000C0000
00001E0000
00003E0000
0000FC0000
0001F80000
0003E00000
0007800000
000F000000
000C000000
0000000000
0000000000
0000000000
0000000000
F0000003C0
7800000780
3C00000F00
1E00001E00
0F00003C00
0780007800
03C000F000
01E001E000
00F003C000
0078078000
003C0F0000
001E1E0000
000F3C0000
0007F80000
0003F00000
0001E00000
0001C00000
0001C00000
0001C00000
0001C00000
0001C00000
0001C00000
0001C00000
0001C00000
0001C00000
0001C00000
0001C00000
ENDCHAR
STARTCHAR Thorn
ENCODING 222
SWIDTH 937 0
DWIDTH 34 0
BBX 30 27 2 0
BITMAP
E0000000
E0000000
E0000000
FFFFFFC0
FFFFFFF0
FFFFFFF8
E000007C
E000003C
E000001C
E000001C
E000001C
E000001C
E000001C
E000001C
E000001C
E000003C
E0000078
FFFFFFF8
FFFFFFE0
FFFFFF80
E0000000
E0000000
E0000000
E0000000
E0000000
E0000000
E0000000
ENDCHAR
STARTCHAR germandbls
ENCODING 223
SWIDTH 1000 0
DWIDTH 36 0
BBX 31 29 2 -2
BITMAP
07FFFF80
1FFFFFE0
3FFFFFF0
7C0000F0
F0000078
E0000038
E0000038
E0000038
E0000038
E0000078
E00000F0
E3FFFFE0
E3FFFFE0
E3FFFFF8
E000007C
E000001C
E000000E
E000000E
E000000E
E000000E
E000000E
E000000E
E000001E
E000007C
E3FFFFFC
E3FFFFF0
E3FFFFC0
E0000000
E0000000
ENDCHAR
STARTCHAR agrave
ENCODING 224
SWIDTH 781 0
DWIDTH 28 0
BBX 23 33 2 0
BITMAP
008000
01C000
03E000
03F000
00FC00
003E00
001F00
000780
0001C0
000080
000000
000000
03FF80
1FFFF0
3FFFF8
78007C
70001C
00001C
00000E
00000E
00000E
0FFF8E
3FFFFE
7FFFFE
70007E
E0000E
E0000E
E0000E
E0001E
F8007E
7FFFFE
3FFFEE
07FF8E
ENDCHAR
STARTCHAR aacute
ENCODING 225
SWIDTH 781 0
DWIDTH 28 0
BBX 23 32 2 0
BITMAP
000180
000780
000FC0
001F80
003E00
007C00
01F000
03C000
038000
000000
000000
03FF80
1FFFF0
3FFFF8
78007C
70001C
00001C
00000E
00000E
00000E
0FFF8E
3FFFFE
7FFFFE
70007E
E0000E
E0000E
E0000E
E0001E
F8007E
7FFFFE
3FFFEE
07FF8E
ENDCHAR
STARTCHAR acircumflex
ENCODING 226
SWIDTH 781 0
DWIDTH 28 0
BBX 24 33 2 0
BITMAP
003C00
003E00
007E00
00F700
00E780
01C380
03C1C0
0381E0
0700E0
0300C0
000000
000000
01FF80
0FFFF0
1FFFF8
3E007C
38001E
78000E
00000E
00000F
00000F
00F80F
1FFFEF
3FFFFF
7E00FF
70000F
F0000F
F0000F
F0000F
F0001F
7E007F
3FFFEF
0FFFCF
ENDCHAR
STARTCHAR atilde
ENCODING 227
SWIDTH 781 0
DWIDTH 28 0
BBX 24 28 2 0
BITMAP
03F070
07FEF0
0FFFE0
0F1FC0
000000
000000
000000
01FF80
0FFFF0
1FFFF8
3E007C
38001E
78000E
00000E
00000F
00000F
00F80F
1FFFEF
3FFFFF
7E00FF
70000F
F0000F
F0000F
F0000F
F0001F
7E007F
3FFFEF
0FFFCF
ENDCHAR
STARTCHAR adieresis
ENCODING 228
SWIDTH 781 0
DWIDTH 28 0
BBX 23 27 2 0
BITMAP
0E0078
0E0078
0E0078
000000
000000
000000
03FF80
1FFFF0
3FFFF8
78007C
70001C
00001C
00000E
00000E
00000E
0FFF8E
3FFFFE
7FFFFE
70007E
E0000E
E0000E
E0000E
E0001E
F8007E
7FFFFE
3FFFEE
07FF8E
ENDCHAR
STARTCHAR aring
ENCODING 229
SWIDTH 781 0
DWIDTH 28 0
BBX 24 34 2 0
BITMAP
001C00
00FF00
01FF80
0381C0
0381C0
0381C0
0381C0
0381C0
03C3C0
01FF80
00FF00
000800
000000
01FF80
0FFFF0
1FFFF8
3E007C
38001E
78000E
00000E
00000F
00000F
00F80F
1FFFEF
3FFFFF
7E00FF
70000F
F0000F
F0000F
F0000F
F0001F
7E007F
3FFFEF
0FFFCF
ENDCHAR
STARTCHAR ae
ENCODING 230
SWIDTH 1343 0
DWIDTH 48 0
BBX 44 21 2 -1
BITMAP
03FFC01FFC00
1FFFF07FFF00
3FFFF8FFFFC0
7C003DE003E0
70000F8001E0
70000F8000E0
000007000070
000007000070
07FC07000070
3FFFF7FFFFF0
7FFFFFFFFFF0
78003F000000
E0000F000000
E00007000000
E00007000070
E00007800070
E0000F8000F0
78003FE001E0
7FFFFDFFFFE0
1FFFF07FFFC0
03FF800FFE00
ENDCHAR
STARTCHAR ccedilla
ENCODING 231
SWIDTH 781 0
DWIDTH 28 0
BBX 23 30 2 -10
BITMAP
03FFC0
1FFFF8
3FFFFC
7E003C
70001E
E0000E
E0000E
E00000
E00000
E00000
E00000
E00000
E00000
E0000E
F0000E
70001E
7E003C
3FFFFC
1FFFF8
03FFC0
003800
003800
003F00
003F80
000380
000380
000780
003F80
003F00
003C00
ENDCHAR
STARTCHAR egrave
ENCODING 232
SWIDTH 781 0
DWIDTH 28 0
BBX 23 33 3 0
BITMAP
010000
038000
07C000
07E000
01F800
007C00
003E00
000F00
000380
000100
000000
000000
03FF00
1FFFE0
3FFFF0
7C00F8
70003C
E0001C
E0001C
E0001C
E0000E
FFFFFE
FFFFFC
E00000
E00000
E00000
E00000
E0000E
70001C
7C003C
3FFFFC
1FFFF0
03FFC0
ENDCHAR
STARTCHAR eacute
ENCODING 233
SWIDTH 781 0
DWIDTH 28 0
BBX 23 32 3 0
BITMAP
000300
000F00
001F80
003F00
007C00
00F800
03E000
078000
070000
000000
000000
03FF00
1FFFE0
3FFFF0
7C00F8
70003C
E0001C
E0001C
E0001C
E0000E
FFFFFE
FFFFFC
E00000
E00000
E00000
E00000
E0000E
70001C
7C003C
3FFFFC
1FFFF0
03FFC0
ENDCHAR
STARTCHAR ecircumflex
ENCODING 234
SWIDTH 781 0
DWIDTH 28 0
BBX 24 33 2 0
BITMAP
003C00
003E00
007E00
00F700
00E780
01C380
03C1C0
0381E0
0700E0
0300C0
000000
000000
00FF80
07FFF0
1FFFF8
3E007C
78001E
70000E
70000F
70000F
F0000F
FFFFFF
FFFFFF
FFFFFF
F00000
F00000
F00000
70000F
78000F
78000F
3F007E
1FFFFC
07FFF0
ENDCHAR
STARTCHAR edieresis
ENCODING 235
SWIDTH 781 0
DWIDTH 28 0
BBX 23 27 3 0
BITMAP
1C00F0
1C00F0
1C00F0
000000
000000
000000
03FF00
1FFFE0
3FFFF0
7C00F8
70003C
E0001C
E0001C
E0001C
E0000E
FFFFFE
FFFFFC
E00000
E00000
E00000
E00000
E0000E
70001C
7C003C
3FFFFC
1FFFF0
03FFC0
ENDCHAR
STARTCHAR igrave
ENCODING 236
SWIDTH 218 0
DWIDTH 8 0
BBX 12 32 -2 0
BITMAP
6000
7800
FC00
7E00
1F00
0F80
03E0
00F0
0070
0000
0000
0000
0000
0F00
0F00
0F00
0F00
0F00
0F00
0F00
0F00
0F00
0F00
0F00
0F00
0F00
0F00
0F00
0F00
0F00
0F00
0F00
ENDCHAR
STARTCHAR iacute
ENCODING 237
SWIDTH 218 0
DWIDTH 8 0
BBX 12 32 -2 0
BITMAP
0060
01E0
03F0
07E0
0F80
1F00
7C00
F000
E000
0000
0000
0000
0000
0F00
0F00
0F00
0F00
0F00
0F00
0F00
0F00
0F00
0F00
0F00
0F00
0F00
0F00
0F00
0F00
0F00
0F00
0F00
ENDCHAR
STARTCHAR icircumflex
ENCODING 238
SWIDTH 218 0
DWIDTH 8 0
BBX 14 33 -3 0
BITMAP
0780
0780
0FC0
1CE0
1CE0
3870
7078
7038
E01C
6018
0000
0000
0000
0000
0780
0780
0780
0780
0780
0780
0780
0780
0780
0780
0780
0780
0780
0780
0780
0780
0780
0780
0780
ENDCHAR
STARTCHAR idieresis
ENCODING 239
SWIDTH 218 0
DWIDTH 8 0
BBX 16 27 -4 0
BITMAP
E007
E007
E007
0000
0000
0000
0000
0000
03C0
03C0
03C0
03C0
03C0
03C0
03C0
03C0
03C0
03C0
03C0
03C0
03C0
03C0
03C0
03C0
03C0
03C0
03C0
ENDCHAR
STARTCHAR eth
ENCODING 240
SWIDTH 968 0
DWIDTH 35 0
BBX 34 27 2 0
BITMAP
00FFFC0000
0FFFFF8000
1FFFFFE000
3F0003F080
7800007FC0
7000003F80
700000FC00
000007FC00
0000071C00
0000001C00
03FFFE1C00
1FFFFFDC00
3FFFFFFC00
7FC000FC00
7E00003C00
F800001C00
F000001C00
E000001C00
E000001C00
E000001C00
E000001C00
E000003800
7000003800
7C0001F800
3FFFFFF000
1FFFFFC000
03FFFE0000
ENDCHAR
STARTCHAR ntilde
ENCODING 241
SWIDTH 782 0
DWIDTH 28 0
BBX 24 28 2 0
BITMAP
03F070
07FEF0
07FFE0
0F0FC0
000000
000000
000000
003FC0
F3FFF8
F7FFFC
FF007E
F8001E
F0000F
F0000F
F0000F
F0000F
F0000F
F0000F
F0000F
F0000F
F0000F
F0000F
F0000F
F0000F
F0000F
F0000F
F0000F
F0000F
ENDCHAR
STARTCHAR ograve
ENCODING 242
SWIDTH 812 0
DWIDTH 29 0
BBX 24 33 3 0
BITMAP
010000
01C000
03E000
03F000
01F800
007C00
001F00
000F80
0003C0
000080
000000
000000
03FF80
1FFFF0
3FFFF8
7C007C
F0001E
E0000E
E0000E
E0000E
E0000E
E00007
E00007
E00007
E0000E
E0000E
E0000E
E0000E
70001E
7C007C
3FFFF8
1FFFF0
03FF80
ENDCHAR
STARTCHAR oacute
ENCODING 243
SWIDTH 812 0
DWIDTH 29 0
BBX 24 33 3 0
BITMAP
000100
000300
000780
000FC0
001F80
007E00
00F800
01F000
03C000
030000
000000
000000
03FF80
1FFFF0
3FFFF8
7C007C
F0001E
E0000E
E0000E
E0000E
E0000E
E00007
E00007
E00007
E0000E
E0000E
E0000E
E0000E
70001E
7C007C
3FFFF8
1FFFF0
03FF80
ENDCHAR
STARTCHAR ocircumflex
ENCODING 244
SWIDTH 812 0
DWIDTH 29 0
BBX 25 33 2 0
BITMAP
001C0000
003E0000
003F0000
00770000
00E38000
00E3C000
01C1C000
03C0E000
0380F000
03006000
00000000
00000000
007F0000
0FFFF800
1FFFFC00
3E003E00
78000F00
70000700
70000780
F0000780
F0000380
F0000380
F0000380
F0000380
F0000380
F0000780
70000780
70000700
78000700
38000F00
3F807E00
1FFFFC00
07FFF000
ENDCHAR
STARTCHAR otilde
ENCODING 245
SWIDTH 812 0
DWIDTH 29 0
BBX 25 28 2 0
BITMAP
01F87000
03FFF000
07FFF000
070FE000
00000000
00000000
00000000
007F0000
0FFFF800
1FFFFC00
3E003E00
78000F00
70000700
70000780
F0000780
F0000380
F0000380
F0000380
F0000380
F0000380
F0000780
70000780
70000700
78000700
38000F00
3F807E00
1FFFFC00
07FFF000
ENDCHAR
STARTCHAR odieresis
ENCODING 246
SWIDTH 812 0
DWIDTH 29 0
BBX 24 27 3 0
BITMAP
1E0070
1E0070
1E0070
000000
000000
000000
03FF80
1FFFF0
3FFFF8
7C007C
F0001E
E0000E
E0000E
E0000E
E0000E
E00007
E00007
E00007
E0000E
E0000E
E0000E
E0000E
70001E
7C007C
3FFFF8
1FFFF0
03FF80
ENDCHAR
STARTCHAR divide
ENCODING 247
SWIDTH 625 0
DWIDTH 23 0
BBX 18 14 2 3
BITMAP
00F000
00F000
00F000
00F000
000000
FFFFC0
FFFFC0
FFFFC0
000000
000000
00F000
00F000
00F000
00F000
ENDCHAR
STARTCHAR oslash
ENCODING 248
SWIDTH 812 0
DWIDTH 29 0
BBX 25 27 2 -4
BITMAP
00008000
0000E000
0001C000
01FFC000
0FFFF800
3FFFFE00
7C03FF00
78070F00
70070700
E00F0380
E00E0380
E00E0380
E01E0380
E01C0380
E03C0380
E0380380
E0380380
60780700
70700700
78701F00
3FFFFE00
0FFFF800
03FFC000
01C00000
01C00000
03800000
00800000
ENDCHAR
STARTCHAR ugrave
ENCODING 249
SWIDTH 782 0
DWIDTH 28 0
BBX 24 33 2 0
BITMAP
008000
01C000
03E000
03F000
00FC00
003E00
001F00
000780
0001C0
000080
000000
000000
E00007
E00007
E00007
E00007
E00007
E00007
E00007
E00007
E00007
E00007
E00007
E00007
E00007
E00007
E00007
F0000F
70001F
7E00FF
3FFFF7
1FFFC7
07FE07
ENDCHAR
STARTCHAR uacute
ENCODING 250
SWIDTH 782 0
DWIDTH 28 0
BBX 24 32 2 0
BITMAP
000180
000780
000FC0
001F80
003E00
007C00
01F000
03C000
038000
000000
000000
E00007
E00007
E00007
E00007
E00007
E00007
E00007
E00007
E00007
E00007
E00007
E00007
E00007
E00007
E00007
F0000F
70001F
7E00FF
3FFFF7
1FFFC7
07FE07
ENDCHAR
STARTCHAR ucircumflex
ENCODING 251
SWIDTH 782 0
DWIDTH 28 0
BBX 24 33 2 0
BITMAP
003C00
003E00
007E00
00F700
00E780
01C380
03C1C0
0381E0
0700E0
0300C0
000000
000000
000000
F00007
F00007
F00007
F00007
F00007
F00007
F00007
F00007
F00007
F00007
F00007
F00007
F0000F
F0000F
F0000F
70000F
78003F
3F83F7
3FFFE7
0FFF87
ENDCHAR
STARTCHAR udieresis
ENCODING 252
SWIDTH 782 0
DWIDTH 28 0
BBX 24 27 2 0
BITMAP
0E0078
0E0078
0E0078
000000
000000
000000
E00007
E00007
E00007
E00007
E00007
E00007
E00007
E00007
E00007
E00007
E00007
E00007
E00007
E00007
E00007
F0000F
70001F
7E00FF
3FFFF7
1FFFC7
07FE07
ENDCHAR
STARTCHAR yacute
ENCODING 253
SWIDTH 765 0
DWIDTH 28 0
BBX 24 39 2 -7
BITMAP
000300
000780
000FC0
001F80
003E00
00F800
01F000
03C000
030000
000000
000000
000000
E0000F
F0000F
70001E
78001E
38003C
3C003C
1C0078
1E0078
0E00F0
0F00F0
0701E0
0781E0
0381C0
03C3C0
01C380
01E780
00E700
00FF00
007E00
003E00
001C00
003C00
007800
00F800
1FF000
1FE000
1F0000
ENDCHAR
STARTCHAR thorn
ENCODING 254
SWIDTH 781 0
DWIDTH 28 0
BBX 25 33 2 -6
BITMAP
E0000000
E0000000
E0000000
E0000000
E0000000
E0000000
E0000000
E1FFC000
E7FFF800
FFFFFE00
FE001E00
F8000700
F0000700
E0000380
E0000380
E0000380
E0000380
E0000380
E0000380
E0000380
E0000380
F0000700
F8000700
FC001E00
FFFFFE00
E7FFF800
E1FFE000
E0000000
E0000000
E0000000
E0000000
E0000000
E0000000
ENDCHAR
STARTCHAR ydieresis
ENCODING 255
SWIDTH 765 0
DWIDTH 28 0
BBX 24 34 2 -7
BITMAP
1E0070
1E0070
1E0070
000000
000000
000000
000000
E0000F
F0000F
70001E
78001E
38003C
3C003C
1C0078
1E0078
0E00F0
0F00F0
0701E0
0781E0
0381C0
03C3C0
01C380
01E780
00E700
00FF00
007E00
003E00
001C00
003C00
007800
00F800
1FF000
1FE000
1F0000
ENDCHAR
ENDFONT
